<mxfile host="app.diagrams.net" agent="Mozilla/5.0 (Windows NT 10.0; Win64; x64) AppleWebKit/537.36 (KHTML, like Gecko) Chrome/133.0.0.0 Safari/537.36" version="26.0.16">
  <diagram name="Page-1" id="tEEU3MfRf6Xgce31HGKK">
    <mxGraphModel dx="746" dy="443" grid="1" gridSize="10" guides="1" tooltips="1" connect="1" arrows="1" fold="1" page="1" pageScale="1" pageWidth="827" pageHeight="1169" math="0" shadow="0">
      <root>
        <mxCell id="0" />
        <mxCell id="1" parent="0" />
        <mxCell id="Xl67diWMQrAPVDYZNk1t-17" value="" style="shape=link;html=1;rounded=0;strokeWidth=4;" parent="1" edge="1">
          <mxGeometry width="100" relative="1" as="geometry">
            <mxPoint x="360" y="20" as="sourcePoint" />
            <mxPoint x="360" y="711" as="targetPoint" />
          </mxGeometry>
        </mxCell>
        <mxCell id="Xl67diWMQrAPVDYZNk1t-18" value="8 bit data bus" style="text;html=1;align=center;verticalAlign=middle;whiteSpace=wrap;rounded=0;" parent="1" vertex="1">
          <mxGeometry x="316" width="90" height="30" as="geometry" />
        </mxCell>
        <mxCell id="sEh8PZAzqO4pUA3xeIS0-4" value="" style="edgeStyle=orthogonalEdgeStyle;rounded=0;orthogonalLoop=1;jettySize=auto;html=1;" parent="1" source="YqJ4mDumZ-eMTZq-kE3I-2" target="sEh8PZAzqO4pUA3xeIS0-3" edge="1">
          <mxGeometry relative="1" as="geometry" />
        </mxCell>
        <mxCell id="YqJ4mDumZ-eMTZq-kE3I-2" value="Register 1" style="rounded=1;whiteSpace=wrap;html=1;" parent="1" vertex="1">
          <mxGeometry x="464" y="50" width="100" height="30" as="geometry" />
        </mxCell>
        <mxCell id="sEh8PZAzqO4pUA3xeIS0-2" value="" style="shape=link;html=1;rounded=0;" parent="1" edge="1">
          <mxGeometry width="100" relative="1" as="geometry">
            <mxPoint x="364" y="64.75" as="sourcePoint" />
            <mxPoint x="464" y="64.75" as="targetPoint" />
          </mxGeometry>
        </mxCell>
        <mxCell id="sEh8PZAzqO4pUA3xeIS0-3" value="Bus Transceiver" style="whiteSpace=wrap;html=1;rounded=1;" parent="1" vertex="1">
          <mxGeometry x="467" y="113" width="95" height="25" as="geometry" />
        </mxCell>
        <mxCell id="sEh8PZAzqO4pUA3xeIS0-5" value="" style="shape=link;html=1;rounded=0;" parent="1" edge="1">
          <mxGeometry width="100" relative="1" as="geometry">
            <mxPoint x="366" y="125.75" as="sourcePoint" />
            <mxPoint x="466" y="125.75" as="targetPoint" />
          </mxGeometry>
        </mxCell>
        <mxCell id="sEh8PZAzqO4pUA3xeIS0-6" value="" style="edgeStyle=orthogonalEdgeStyle;rounded=0;orthogonalLoop=1;jettySize=auto;html=1;" parent="1" source="sEh8PZAzqO4pUA3xeIS0-7" target="sEh8PZAzqO4pUA3xeIS0-8" edge="1">
          <mxGeometry relative="1" as="geometry" />
        </mxCell>
        <mxCell id="sEh8PZAzqO4pUA3xeIS0-7" value="Register 2" style="rounded=1;whiteSpace=wrap;html=1;" parent="1" vertex="1">
          <mxGeometry x="155" y="80.5" width="100" height="30" as="geometry" />
        </mxCell>
        <mxCell id="sEh8PZAzqO4pUA3xeIS0-8" value="Bus Transceiver" style="whiteSpace=wrap;html=1;rounded=1;" parent="1" vertex="1">
          <mxGeometry x="158" y="143.5" width="95" height="25" as="geometry" />
        </mxCell>
        <mxCell id="sEh8PZAzqO4pUA3xeIS0-9" value="" style="shape=link;html=1;rounded=0;" parent="1" edge="1">
          <mxGeometry width="100" relative="1" as="geometry">
            <mxPoint x="254" y="96.75" as="sourcePoint" />
            <mxPoint x="354" y="96.75" as="targetPoint" />
          </mxGeometry>
        </mxCell>
        <mxCell id="sEh8PZAzqO4pUA3xeIS0-10" value="" style="shape=link;html=1;rounded=0;" parent="1" edge="1">
          <mxGeometry width="100" relative="1" as="geometry">
            <mxPoint x="254" y="155.75" as="sourcePoint" />
            <mxPoint x="354" y="155.75" as="targetPoint" />
          </mxGeometry>
        </mxCell>
        <mxCell id="sEh8PZAzqO4pUA3xeIS0-39" value="" style="edgeStyle=orthogonalEdgeStyle;rounded=0;orthogonalLoop=1;jettySize=auto;html=1;" parent="1" source="sEh8PZAzqO4pUA3xeIS0-16" target="sEh8PZAzqO4pUA3xeIS0-38" edge="1">
          <mxGeometry relative="1" as="geometry" />
        </mxCell>
        <mxCell id="sEh8PZAzqO4pUA3xeIS0-16" value="Output Register" style="rounded=1;whiteSpace=wrap;html=1;" parent="1" vertex="1">
          <mxGeometry x="155" y="311.5" width="100" height="30" as="geometry" />
        </mxCell>
        <mxCell id="sEh8PZAzqO4pUA3xeIS0-17" value="" style="shape=link;html=1;rounded=0;" parent="1" edge="1">
          <mxGeometry width="100" relative="1" as="geometry">
            <mxPoint x="254" y="325.75" as="sourcePoint" />
            <mxPoint x="354" y="325.75" as="targetPoint" />
          </mxGeometry>
        </mxCell>
        <mxCell id="sEh8PZAzqO4pUA3xeIS0-19" value="input" style="text;html=1;align=center;verticalAlign=middle;whiteSpace=wrap;rounded=0;" parent="1" vertex="1">
          <mxGeometry x="270" y="72" width="60" height="30" as="geometry" />
        </mxCell>
        <mxCell id="sEh8PZAzqO4pUA3xeIS0-20" value="input" style="text;html=1;align=center;verticalAlign=middle;whiteSpace=wrap;rounded=0;" parent="1" vertex="1">
          <mxGeometry x="270" y="300" width="60" height="30" as="geometry" />
        </mxCell>
        <mxCell id="sEh8PZAzqO4pUA3xeIS0-21" value="input" style="text;html=1;align=center;verticalAlign=middle;whiteSpace=wrap;rounded=0;" parent="1" vertex="1">
          <mxGeometry x="384" y="40" width="60" height="30" as="geometry" />
        </mxCell>
        <mxCell id="sEh8PZAzqO4pUA3xeIS0-23" value="output" style="text;html=1;align=center;verticalAlign=middle;whiteSpace=wrap;rounded=0;" parent="1" vertex="1">
          <mxGeometry x="270" y="130" width="60" height="30" as="geometry" />
        </mxCell>
        <mxCell id="sEh8PZAzqO4pUA3xeIS0-24" value="output" style="text;html=1;align=center;verticalAlign=middle;whiteSpace=wrap;rounded=0;" parent="1" vertex="1">
          <mxGeometry x="384" y="100" width="60" height="30" as="geometry" />
        </mxCell>
        <mxCell id="sEh8PZAzqO4pUA3xeIS0-26" value="&lt;font style=&quot;font-size: 10px;&quot;&gt;always on output&lt;/font&gt;" style="text;html=1;align=center;verticalAlign=middle;whiteSpace=wrap;rounded=0;" parent="1" vertex="1">
          <mxGeometry x="150" y="110.75" width="60" height="29.5" as="geometry" />
        </mxCell>
        <mxCell id="sEh8PZAzqO4pUA3xeIS0-28" value="&lt;font style=&quot;font-size: 10px;&quot;&gt;always on output&lt;/font&gt;" style="text;html=1;align=center;verticalAlign=middle;whiteSpace=wrap;rounded=0;" parent="1" vertex="1">
          <mxGeometry x="510" y="81.25" width="60" height="29.5" as="geometry" />
        </mxCell>
        <mxCell id="sEh8PZAzqO4pUA3xeIS0-30" value="" style="edgeStyle=orthogonalEdgeStyle;rounded=0;orthogonalLoop=1;jettySize=auto;html=1;" parent="1" source="sEh8PZAzqO4pUA3xeIS0-31" target="sEh8PZAzqO4pUA3xeIS0-32" edge="1">
          <mxGeometry relative="1" as="geometry" />
        </mxCell>
        <mxCell id="sEh8PZAzqO4pUA3xeIS0-31" value="Instruction Register" style="rounded=1;whiteSpace=wrap;html=1;" parent="1" vertex="1">
          <mxGeometry x="155" y="196.25" width="100" height="30" as="geometry" />
        </mxCell>
        <mxCell id="sEh8PZAzqO4pUA3xeIS0-32" value="Bus Transceiver" style="whiteSpace=wrap;html=1;rounded=1;" parent="1" vertex="1">
          <mxGeometry x="158" y="259.25" width="95" height="25" as="geometry" />
        </mxCell>
        <mxCell id="sEh8PZAzqO4pUA3xeIS0-33" value="" style="shape=link;html=1;rounded=0;" parent="1" edge="1">
          <mxGeometry width="100" relative="1" as="geometry">
            <mxPoint x="254" y="210.5" as="sourcePoint" />
            <mxPoint x="354" y="210.5" as="targetPoint" />
          </mxGeometry>
        </mxCell>
        <mxCell id="sEh8PZAzqO4pUA3xeIS0-34" value="" style="shape=link;html=1;rounded=0;" parent="1" edge="1">
          <mxGeometry width="100" relative="1" as="geometry">
            <mxPoint x="254" y="271.5" as="sourcePoint" />
            <mxPoint x="354" y="271.5" as="targetPoint" />
          </mxGeometry>
        </mxCell>
        <mxCell id="sEh8PZAzqO4pUA3xeIS0-35" value="input" style="text;html=1;align=center;verticalAlign=middle;whiteSpace=wrap;rounded=0;" parent="1" vertex="1">
          <mxGeometry x="270" y="185.75" width="60" height="30" as="geometry" />
        </mxCell>
        <mxCell id="sEh8PZAzqO4pUA3xeIS0-36" value="output" style="text;html=1;align=center;verticalAlign=middle;whiteSpace=wrap;rounded=0;" parent="1" vertex="1">
          <mxGeometry x="270" y="245.75" width="60" height="30" as="geometry" />
        </mxCell>
        <mxCell id="sEh8PZAzqO4pUA3xeIS0-37" value="&lt;font style=&quot;font-size: 10px;&quot;&gt;always on output&lt;/font&gt;" style="text;html=1;align=center;verticalAlign=middle;whiteSpace=wrap;rounded=0;" parent="1" vertex="1">
          <mxGeometry x="150" y="226.5" width="60" height="29.5" as="geometry" />
        </mxCell>
        <mxCell id="sEh8PZAzqO4pUA3xeIS0-38" value="Some way to display 8 bit value on the SSD (TBD)" style="rounded=1;whiteSpace=wrap;html=1;" parent="1" vertex="1">
          <mxGeometry x="10" y="292.75" width="80" height="67.5" as="geometry" />
        </mxCell>
        <mxCell id="sEh8PZAzqO4pUA3xeIS0-41" value="" style="endArrow=none;html=1;rounded=0;" parent="1" edge="1">
          <mxGeometry width="50" height="50" relative="1" as="geometry">
            <mxPoint x="135" y="105" as="sourcePoint" />
            <mxPoint x="155" y="105" as="targetPoint" />
          </mxGeometry>
        </mxCell>
        <mxCell id="sEh8PZAzqO4pUA3xeIS0-42" value="Clk" style="text;html=1;align=center;verticalAlign=middle;whiteSpace=wrap;rounded=0;fontSize=9;" parent="1" vertex="1">
          <mxGeometry x="107" y="95" width="42" height="20" as="geometry" />
        </mxCell>
        <mxCell id="sEh8PZAzqO4pUA3xeIS0-44" value="" style="endArrow=none;html=1;rounded=0;" parent="1" edge="1">
          <mxGeometry width="50" height="50" relative="1" as="geometry">
            <mxPoint x="135" y="218.25" as="sourcePoint" />
            <mxPoint x="155" y="218.25" as="targetPoint" />
          </mxGeometry>
        </mxCell>
        <mxCell id="sEh8PZAzqO4pUA3xeIS0-45" value="Clk" style="text;html=1;align=center;verticalAlign=middle;whiteSpace=wrap;rounded=0;fontSize=9;" parent="1" vertex="1">
          <mxGeometry x="107" y="208.25" width="42" height="20" as="geometry" />
        </mxCell>
        <mxCell id="sEh8PZAzqO4pUA3xeIS0-46" value="" style="endArrow=none;html=1;rounded=0;" parent="1" edge="1">
          <mxGeometry width="50" height="50" relative="1" as="geometry">
            <mxPoint x="138" y="161" as="sourcePoint" />
            <mxPoint x="158" y="161" as="targetPoint" />
          </mxGeometry>
        </mxCell>
        <mxCell id="sEh8PZAzqO4pUA3xeIS0-47" value="Clk" style="text;html=1;align=center;verticalAlign=middle;whiteSpace=wrap;rounded=0;fontSize=9;" parent="1" vertex="1">
          <mxGeometry x="109" y="151" width="42" height="20" as="geometry" />
        </mxCell>
        <mxCell id="sEh8PZAzqO4pUA3xeIS0-48" value="" style="endArrow=none;html=1;rounded=0;" parent="1" edge="1">
          <mxGeometry width="50" height="50" relative="1" as="geometry">
            <mxPoint x="138" y="279.25" as="sourcePoint" />
            <mxPoint x="158" y="279.25" as="targetPoint" />
          </mxGeometry>
        </mxCell>
        <mxCell id="sEh8PZAzqO4pUA3xeIS0-49" value="Clk" style="text;html=1;align=center;verticalAlign=middle;whiteSpace=wrap;rounded=0;fontSize=9;" parent="1" vertex="1">
          <mxGeometry x="110" y="269.25" width="42" height="20" as="geometry" />
        </mxCell>
        <mxCell id="sEh8PZAzqO4pUA3xeIS0-55" value="" style="endArrow=none;html=1;rounded=0;" parent="1" edge="1">
          <mxGeometry width="50" height="50" relative="1" as="geometry">
            <mxPoint x="562" y="134.5" as="sourcePoint" />
            <mxPoint x="582" y="134.5" as="targetPoint" />
          </mxGeometry>
        </mxCell>
        <mxCell id="sEh8PZAzqO4pUA3xeIS0-56" value="Clk" style="text;html=1;align=center;verticalAlign=middle;whiteSpace=wrap;rounded=0;fontSize=9;" parent="1" vertex="1">
          <mxGeometry x="575" y="124" width="32" height="20" as="geometry" />
        </mxCell>
        <mxCell id="sEh8PZAzqO4pUA3xeIS0-57" value="" style="endArrow=none;html=1;rounded=0;" parent="1" edge="1">
          <mxGeometry width="50" height="50" relative="1" as="geometry">
            <mxPoint x="562" y="76.46" as="sourcePoint" />
            <mxPoint x="582" y="76.46" as="targetPoint" />
          </mxGeometry>
        </mxCell>
        <mxCell id="sEh8PZAzqO4pUA3xeIS0-58" value="Clk" style="text;html=1;align=center;verticalAlign=middle;whiteSpace=wrap;rounded=0;fontSize=9;" parent="1" vertex="1">
          <mxGeometry x="575" y="65.96" width="32" height="20" as="geometry" />
        </mxCell>
        <mxCell id="sEh8PZAzqO4pUA3xeIS0-60" value="" style="endArrow=none;html=1;rounded=0;" parent="1" edge="1">
          <mxGeometry width="50" height="50" relative="1" as="geometry">
            <mxPoint x="134" y="89" as="sourcePoint" />
            <mxPoint x="154" y="89" as="targetPoint" />
          </mxGeometry>
        </mxCell>
        <mxCell id="sEh8PZAzqO4pUA3xeIS0-61" value="read" style="text;html=1;align=center;verticalAlign=middle;whiteSpace=wrap;rounded=0;fontSize=9;" parent="1" vertex="1">
          <mxGeometry x="101" y="79" width="42" height="20" as="geometry" />
        </mxCell>
        <mxCell id="sEh8PZAzqO4pUA3xeIS0-62" value="" style="endArrow=none;html=1;rounded=0;" parent="1" edge="1">
          <mxGeometry width="50" height="50" relative="1" as="geometry">
            <mxPoint x="134" y="205.25" as="sourcePoint" />
            <mxPoint x="154" y="205.25" as="targetPoint" />
          </mxGeometry>
        </mxCell>
        <mxCell id="sEh8PZAzqO4pUA3xeIS0-63" value="read" style="text;html=1;align=center;verticalAlign=middle;whiteSpace=wrap;rounded=0;fontSize=9;" parent="1" vertex="1">
          <mxGeometry x="102" y="195.25" width="42" height="20" as="geometry" />
        </mxCell>
        <mxCell id="sEh8PZAzqO4pUA3xeIS0-64" value="" style="endArrow=none;html=1;rounded=0;" parent="1" edge="1">
          <mxGeometry width="50" height="50" relative="1" as="geometry">
            <mxPoint x="138" y="150" as="sourcePoint" />
            <mxPoint x="158" y="150" as="targetPoint" />
          </mxGeometry>
        </mxCell>
        <mxCell id="sEh8PZAzqO4pUA3xeIS0-65" value="write" style="text;html=1;align=center;verticalAlign=middle;whiteSpace=wrap;rounded=0;fontSize=9;" parent="1" vertex="1">
          <mxGeometry x="106" y="139" width="42" height="20" as="geometry" />
        </mxCell>
        <mxCell id="sEh8PZAzqO4pUA3xeIS0-66" value="" style="endArrow=none;html=1;rounded=0;" parent="1" edge="1">
          <mxGeometry width="50" height="50" relative="1" as="geometry">
            <mxPoint x="138" y="268.25" as="sourcePoint" />
            <mxPoint x="158" y="268.25" as="targetPoint" />
          </mxGeometry>
        </mxCell>
        <mxCell id="sEh8PZAzqO4pUA3xeIS0-67" value="write" style="text;html=1;align=center;verticalAlign=middle;whiteSpace=wrap;rounded=0;fontSize=9;" parent="1" vertex="1">
          <mxGeometry x="106" y="257.25" width="42" height="20" as="geometry" />
        </mxCell>
        <mxCell id="sEh8PZAzqO4pUA3xeIS0-72" value="" style="endArrow=none;html=1;rounded=0;" parent="1" edge="1">
          <mxGeometry width="50" height="50" relative="1" as="geometry">
            <mxPoint x="137" y="333.25" as="sourcePoint" />
            <mxPoint x="157" y="333.25" as="targetPoint" />
          </mxGeometry>
        </mxCell>
        <mxCell id="sEh8PZAzqO4pUA3xeIS0-73" value="Clk" style="text;html=1;align=center;verticalAlign=middle;whiteSpace=wrap;rounded=0;fontSize=9;" parent="1" vertex="1">
          <mxGeometry x="109" y="323.25" width="42" height="20" as="geometry" />
        </mxCell>
        <mxCell id="sEh8PZAzqO4pUA3xeIS0-74" value="" style="endArrow=none;html=1;rounded=0;" parent="1" edge="1">
          <mxGeometry width="50" height="50" relative="1" as="geometry">
            <mxPoint x="136" y="320.25" as="sourcePoint" />
            <mxPoint x="156" y="320.25" as="targetPoint" />
          </mxGeometry>
        </mxCell>
        <mxCell id="sEh8PZAzqO4pUA3xeIS0-75" value="read" style="text;html=1;align=center;verticalAlign=middle;whiteSpace=wrap;rounded=0;fontSize=9;" parent="1" vertex="1">
          <mxGeometry x="104" y="310.25" width="42" height="20" as="geometry" />
        </mxCell>
        <mxCell id="sEh8PZAzqO4pUA3xeIS0-80" value="" style="endArrow=none;html=1;rounded=0;" parent="1" edge="1">
          <mxGeometry width="50" height="50" relative="1" as="geometry">
            <mxPoint x="563" y="118.5" as="sourcePoint" />
            <mxPoint x="583" y="118.5" as="targetPoint" />
          </mxGeometry>
        </mxCell>
        <mxCell id="sEh8PZAzqO4pUA3xeIS0-81" value="write" style="text;html=1;align=center;verticalAlign=middle;whiteSpace=wrap;rounded=0;fontSize=9;" parent="1" vertex="1">
          <mxGeometry x="578" y="107" width="32" height="20" as="geometry" />
        </mxCell>
        <mxCell id="sEh8PZAzqO4pUA3xeIS0-82" value="" style="endArrow=none;html=1;rounded=0;" parent="1" edge="1">
          <mxGeometry width="50" height="50" relative="1" as="geometry">
            <mxPoint x="563" y="58.459999999999994" as="sourcePoint" />
            <mxPoint x="583" y="58.459999999999994" as="targetPoint" />
          </mxGeometry>
        </mxCell>
        <mxCell id="sEh8PZAzqO4pUA3xeIS0-83" value="read" style="text;html=1;align=center;verticalAlign=middle;whiteSpace=wrap;rounded=0;fontSize=9;" parent="1" vertex="1">
          <mxGeometry x="579" y="47.959999999999994" width="32" height="20" as="geometry" />
        </mxCell>
      </root>
    </mxGraphModel>
  </diagram>
</mxfile>
